<svg version="1.1" id="Layer_1_1_" xmlns="http://www.w3.org/2000/svg" xmlns:xlink="http://www.w3.org/1999/xlink" x="0px" y="0px" viewBox="0 0 16 16" style="enable-background:new 0 0 16 16;" xml:space="preserve">
<circle cx="8.5" cy="7.5" r="4.5" id="id_101" style="fill: rgb(255, 255, 255);"></circle>
<rect x="8" width="1" height="2" id="id_102" style="fill: rgb(255, 255, 255);"></rect>
<rect x="8" y="13" width="1" height="2" id="id_103" style="fill: rgb(255, 255, 255);"></rect>
<rect x="14" y="7" width="2" height="1" id="id_104" style="fill: rgb(255, 255, 255);"></rect>
<rect x="1" y="7" width="2" height="1" id="id_105" style="fill: rgb(255, 255, 255);"></rect>
<rect x="12.596" y="11.096" transform="matrix(0.7071 -0.7071 0.7071 0.7071 -4.7175 12.8033)" width="1" height="2" id="id_106" style="fill: rgb(255, 255, 255);"></rect>
<rect x="3.404" y="1.904" transform="matrix(0.7071 -0.7071 0.7071 0.7071 -0.9099 3.6109)" width="1" height="2" id="id_107" style="fill: rgb(255, 255, 255);"></rect>
<rect x="2.904" y="11.596" transform="matrix(0.7071 -0.7071 0.7071 0.7071 -7.4099 6.3033)" width="2" height="1" id="id_108" style="fill: rgb(255, 255, 255);"></rect>
<rect x="12.096" y="2.404" transform="matrix(0.7071 -0.7071 0.7071 0.7071 1.7823 10.1107)" width="2" height="1" id="id_109" style="fill: rgb(255, 255, 255);"></rect>
</svg>